<svg data-v-423bf9ae="" xmlns="http://www.w3.org/2000/svg" viewBox="0 0 283 90" class="iconLeft"><!----><!----><!----><g data-v-423bf9ae="" id="08cff045-f3a1-45fa-8bd1-d10d6c5442a1" fill="black" transform="matrix(3.7759596415120917,0,0,3.7759596415120917,64.88013714961268,12.885461697680967)"><path d="M0.32 9.02C0.32 11.12 1.79 12.81 3.89 12.81C4.87 12.81 5.71 12.38 6.24 11.79L6.27 11.79L6.27 12.60L8.72 12.60L8.72 5.42L6.24 5.42L6.24 6.10C5.66 5.53 4.86 5.21 3.89 5.21C1.79 5.21 0.32 6.92 0.32 9.02ZM2.95 9.02C2.95 8.02 3.70 7.32 4.63 7.32C5.56 7.32 6.30 8.02 6.30 9.02C6.30 10.00 5.60 10.70 4.63 10.70C3.63 10.70 2.95 10.00 2.95 9.02ZM10.40 12.60L12.88 12.60L12.88 8.82C12.88 8.64 13.06 7.36 14.35 7.36C15.18 7.36 15.64 7.76 15.64 7.76L16.67 5.66C16.67 5.66 16.03 5.21 15.11 5.21C13.69 5.21 12.91 6.45 12.91 6.45L12.88 6.45L12.88 5.42L10.40 5.42ZM18.65 0.98C17.84 0.98 17.18 1.64 17.18 2.45C17.18 3.26 17.84 3.92 18.65 3.92C19.46 3.92 20.12 3.26 20.12 2.45C20.12 1.64 19.46 0.98 18.65 0.98ZM17.37 5.42L19.85 5.42L19.85 13.71C19.85 14.98 19.24 16.45 17.26 16.45C16.09 16.45 15.64 16.16 15.29 16.00L16.06 14C16.06 14 16.38 14.21 16.69 14.21C17.11 14.21 17.37 13.90 17.37 13.23ZM21.01 9.02C21.01 11.12 22.48 12.81 24.58 12.81C25.56 12.81 26.40 12.38 26.94 11.79L26.96 11.79L26.96 12.60L29.41 12.60L29.41 5.42L26.94 5.42L26.94 6.10C26.35 5.53 25.55 5.21 24.58 5.21C22.48 5.21 21.01 6.92 21.01 9.02ZM23.65 9.02C23.65 8.02 24.39 7.32 25.33 7.32C26.25 7.32 26.99 8.02 26.99 9.02C26.99 10.00 26.29 10.70 25.33 10.70C24.32 10.70 23.65 10.00 23.65 9.02ZM36.48 5.42L34.78 9.10L32.77 5.42L29.92 5.42L33.32 11.48L30.84 16.24L33.70 16.24L39.34 5.42ZM48.30 9.02C48.30 6.92 46.83 5.21 44.73 5.21C43.76 5.21 42.97 5.53 42.38 6.10L42.38 0.56L39.90 0.56L39.90 12.60L42.35 12.60L42.35 11.79L42.38 11.79C42.91 12.38 43.75 12.81 44.73 12.81C46.83 12.81 48.30 11.12 48.30 9.02ZM45.67 9.02C45.67 10.00 45.00 10.70 43.99 10.70C43.02 10.70 42.32 10.00 42.32 9.02C42.32 8.02 43.06 7.32 43.99 7.32C44.93 7.32 45.67 8.02 45.67 9.02ZM54.91 5.42L53.20 9.10L51.20 5.42L48.34 5.42L51.74 11.48L49.27 16.24L52.12 16.24L57.76 5.42Z"></path></g><!----><g data-v-423bf9ae="" id="cfb71df2-8ff9-431a-b892-80ca9cc59658" transform="matrix(2.8125,0,0,2.8125,-21.194407999515533,0)" stroke="none" fill="black"><path d="M18.396 26.495L7.807 15.905 18.432 5.28l.707.707-9.918 9.918 9.882 9.883z"></path><path d="M23.194 1v4.194H19V1h4.194m1-1H18v6.194h6.194V0zM23.194 26.806V31H19v-4.194h4.194m1-1H18V32h6.194v-6.194z"></path></g><!----></svg>